<svg width="580" height="187" xmlns="http://www.w3.org/2000/svg" fill="none">

 <g>
  <title>Layer 1</title>
  <g id="title">
   <path transform="translate(0 336.953)" stroke="#4c5eb7" fill="#4c5eb7" stroke-miterlimit="2" stroke-width="0" d="m0,-193.93749l0,-3.90234l2.42577,0q9.49221,0 11.91798,-6.64455q1.05468,-3.05859 1.05468,-15.1875l0,-92.91795q0,-10.8633 -1.47657,-14.34375q-2.53125,-6.11718 -11.49609,-6.11718l-2.42577,0l0,-3.90237l65.17968,0l0,3.90237l-2.53125,0q-8.96484,0 -11.49609,6.11718q-1.37109,3.48045 -1.37109,14.34375l0,96.71484q0,8.85936 2.53125,10.96875q2.10936,1.6875 11.39061,1.6875l13.28907,0q10.96875,0 12.86718,-1.26564q2.53125,-1.79295 2.53125,-11.39061l0,-96.71484q0,-10.96875 -1.47654,-14.34375q-2.53125,-6.11718 -11.49609,-6.11718l-2.4258,0l0,-3.90237l65.17968,0l0,3.90237l-2.53125,0q-8.96484,0 -11.49609,6.11718q-1.37109,3.375 -1.37109,14.34375l0,94.39452q0,11.07423 1.37109,12.76173q1.79298,2.21484 12.5508,2.21484l16.76952,0q8.85939,0 10.65234,-2.53125q1.26564,-1.79298 1.26564,-11.17968l0,-95.66016q0,-10.75782 -1.47657,-14.34375q-2.53125,-6.11718 -11.49609,-6.11718l-2.4258,0l0,-3.90237l65.07423,0l0,3.90237l-2.42577,0q-8.96484,0 -11.49609,6.11718q-1.47657,3.48045 -1.47657,14.34375l0,94.39452q0,11.07423 1.37109,14.34375q2.53125,6.01173 11.60157,6.01173l2.42577,0l0,45.66798l-3.90234,0q-2.21484,-12.33987 -8.64843,-22.46487q-7.38282,-11.8125 -17.71875,-15.71484q-9.1758,-3.58593 -23.41407,-3.58593l-165.375,0z" id="path65290"/>
   <path transform="translate(0 336.953)" stroke="#4c70b7" fill="#4c70b7" stroke-miterlimit="2" stroke-width="0" d="m341.40234,-197.83983l0,29.84766l-4.00782,0q-1.26561,-14.87109 -11.28516,-20.9883q-8.12109,-4.95702 -24.25779,-4.95702l-70.03125,0l0,-3.90234q7.27734,0 9.59766,-4.95705q1.47654,-3.16404 1.47654,-11.70702l0,-58.42968q0,-8.54298 -1.47654,-11.39064q-2.21487,-4.21875 -9.59766,-4.3242l0,-3.90234l50.20311,0l0,3.90234q-6.64452,0.21093 -8.4375,4.3242q-1.16016,2.4258 -1.16016,10.33596l0,57.79686q0,9.17577 1.47657,11.8125q2.10939,3.90234 10.23048,3.90234l5.69529,0q7.4883,0 9.59766,-3.90234q1.26564,-2.53125 1.26564,-11.28516l0,-57.26952q0,-8.33205 -0.94923,-10.8633q-1.89843,-4.85154 -8.54295,-4.85154l0,-3.90234l50.20311,0l0,3.90234q-6.85548,0.21093 -9.28125,4.21875q-1.89843,3.05859 -1.89843,10.44141l0,59.90625q0,8.64843 1.47657,11.60154q2.21484,4.53516 9.70311,4.64064z" id="path65292"/>
   <path transform="translate(0 336.953)" stroke="#4c82b7" fill="#4c82b7" stroke-miterlimit="2" stroke-width="0" d="m358.17186,-193.93749l0,-3.90234l2.4258,0q9.49218,0 11.91795,-6.64455q1.05471,-3.05859 1.05471,-15.1875l0,-92.91795q0,-10.8633 -1.47657,-14.34375q-2.53125,-6.11718 -11.49609,-6.11718l-2.4258,0l0,-3.90237l65.17971,0l0,3.90237l-2.53125,0q-8.96484,0 -11.49609,6.11718q-1.37112,3.48045 -1.37112,14.34375l0,96.71484q0,8.85936 2.53125,10.96875q2.10939,1.6875 11.39064,1.6875l13.28907,0q10.96875,0 12.86718,-1.26564q2.53125,-1.79295 2.53125,-11.39061l0,-96.71484q0,-10.96875 -1.47657,-14.34375q-2.53125,-6.11718 -11.49609,-6.11718l-2.42577,0l0,-3.90237l65.17968,0l0,3.90237l-2.53125,0q-8.96484,0 -11.49609,6.11718q-1.37109,3.375 -1.37109,14.34375l0,94.39452q0,11.07423 1.37109,12.76173q1.79295,2.21484 12.55077,2.21484l16.76955,0q8.85936,0 10.65234,-2.53125q1.26561,-1.79298 1.26561,-11.17968l0,-95.66016q0,-10.75782 -1.47657,-14.34375q-2.53125,-6.11718 -11.49609,-6.11718l-2.42577,0l0,-3.90237l65.07423,0l0,3.90237l-2.4258,0q-8.96484,0 -11.49609,6.11718q-1.47657,3.48045 -1.47657,14.34375l0,94.39452q0,11.07423 1.37109,14.34375q2.53125,6.01173 11.60157,6.01173l2.4258,0l0,45.66798l-3.90237,0q-2.21484,-12.33987 -8.64843,-22.46487q-7.38282,-11.8125 -17.71875,-15.71484q-9.17577,-3.58593 -23.41407,-3.58593l-165.375,0z" id="path65294"/>
  </g>
 </g>
</svg>